<?xml version="1.0" encoding="utf-8"?>
<!-- Generator: Adobe Illustrator 18.0.0, SVG Export Plug-In . SVG Version: 6.00 Build 0)  -->
<!DOCTYPE svg PUBLIC "-//W3C//DTD SVG 1.1//EN" "http://www.w3.org/Graphics/SVG/1.1/DTD/svg11.dtd">
<svg version="1.1" id="Layer_1" xmlns="http://www.w3.org/2000/svg" xmlns:xlink="http://www.w3.org/1999/xlink" x="0px" y="0px"
	 viewBox="0 0 64 64" enable-background="new 0 0 64 64" xml:space="preserve">
<g>
	<g>
		<g>
			<path fill="#29D331" d="M32,0c17.7,0,32,14.3,32,32S49.7,64,32,64S0,49.7,0,32S14.3,0,32,0z"/>
		</g>
	</g>
	<g>
		<g>
			<path fill="#FFFFFF" d="M16,18.9c-2.9,4.3,0.6,13.3,8.1,20.9s16.6,11,20.9,8.1c0.2-0.1,0.3-0.2,0.4-0.3l2.9-2.9
				c0.9-0.9,0.8-2.4-0.2-3.5L43,36.2c-1-1-2.6-1.1-3.5-0.2l-3.4,3.4c-0.3,0.3-0.9,0.4-1.3,0.1c-1.9-1.3-3.7-2.8-5.5-4.6
				c-1.8-1.8-3.3-3.7-4.6-5.5c-0.3-0.4-0.3-1,0.1-1.3l3.4-3.4c0.9-0.9,0.8-2.4-0.2-3.5l-5.2-5.2c-1-1-2.6-1.1-3.5-0.2l-2.9,2.9
				C16.2,18.6,16.1,18.8,16,18.9z"/>
		</g>
	</g>
</g>
</svg>
